<?xml version="1.0" encoding="UTF-8"?>
<svg version="1.1" xmlns="http://www.w3.org/2000/svg" width="216" height="216">
<path d="M0 0 C3.78979555 2.87120298 7.43127435 5.85905263 11 9 C11.60972656 9.5259375 12.21945313 10.051875 12.84765625 10.59375 C27.695036 24.3530239 37.14763598 43.60231581 42 63 C42.18473877 63.72501709 42.36947754 64.45003418 42.55981445 65.19702148 C48.50981679 91.20398919 43.68966796 120.7137566 29.82666016 143.38867188 C25.41574878 150.35386583 20.44852409 156.80941945 15 163 C14.4740625 163.60972656 13.948125 164.21945313 13.40625 164.84765625 C-0.3530239 179.695036 -19.60231581 189.14763598 -39 194 C-39.72501709 194.18473877 -40.45003418 194.36947754 -41.19702148 194.55981445 C-67.20398919 200.50981679 -96.7137566 195.68966796 -119.38867188 181.82666016 C-126.35386583 177.41574878 -132.80941945 172.44852409 -139 167 C-139.60972656 166.4740625 -140.21945313 165.948125 -140.84765625 165.40625 C-155.695036 151.6469761 -165.14763598 132.39768419 -170 113 C-170.18473877 112.27498291 -170.36947754 111.54996582 -170.55981445 110.80297852 C-176.50981679 84.79601081 -171.68966796 55.2862434 -157.82666016 32.61132812 C-153.41574878 25.64613417 -148.44852409 19.19058055 -143 13 C-142.4740625 12.39027344 -141.948125 11.78054687 -141.40625 11.15234375 C-127.6469761 -3.695036 -108.39768419 -13.14763598 -89 -18 C-88.27498291 -18.18473877 -87.54996582 -18.36947754 -86.80297852 -18.55981445 C-56.68769159 -25.44973832 -24.73914819 -17.84668587 0 0 Z " fill="#ACF7CB" transform="translate(172,20)"/>
<path d="M0 0 C3.94630208 0.46511074 5.12881554 1.57095657 7.91357422 4.35424805 C8.75146484 5.18891602 9.58935547 6.02358398 10.45263672 6.88354492 C11.30857422 7.76719727 12.16451172 8.65084961 13.04638672 9.5612793 C13.92552734 10.4255957 14.80466797 11.28991211 15.71044922 12.18041992 C22.08916652 18.64332837 22.08916652 18.64332837 22.47045898 22.03076172 C22.14462064 24.58347238 21.47165758 26.25229125 20.23388672 28.4987793 C15.29614987 37.5955418 15.6216248 51.14892631 18.29638672 61.0612793 C20.14046228 65.99331158 23.02597804 70.18529165 26.17138672 74.3737793 C26.89326172 75.4050293 27.61513672 76.4362793 28.35888672 77.4987793 C33.73736315 83.72466841 41.96126962 87.5883062 49.49169922 90.54956055 C51.17138672 91.3737793 51.17138672 91.3737793 52.17138672 93.3737793 C52.44332718 98.01448441 52.40302518 102.66351446 52.42138672 107.3112793 C52.44201172 108.61258789 52.46263672 109.91389648 52.48388672 111.25463867 C52.49162109 113.12152344 52.49162109 113.12152344 52.49951172 115.02612305 C52.50885742 116.17072998 52.51820312 117.31533691 52.52783203 118.49462891 C52.17138672 121.3737793 52.17138672 121.3737793 50.83056641 123.27441406 C48.60007003 124.75233125 47.0021689 124.45124454 44.44482422 123.9440918 C24.51155379 118.94364939 7.14988707 108.63033687 -4.51611328 91.2487793 C-16.44733289 71.25058851 -21.32375168 49.35086056 -15.82861328 26.3737793 C-7.90384703 1.04443206 -7.90384703 1.04443206 0 0 Z " fill="#029D44" transform="translate(46.82861328125,62.626220703125)"/>
<path d="M0 0 C1.9171582 0.00858032 1.9171582 0.00858032 3.87304688 0.01733398 C23.64798019 0.38942947 40.00863668 7.29969464 54.875 20.5 C55.56078125 21.09167969 56.2465625 21.68335937 56.953125 22.29296875 C67.60120074 32.12357411 76.17801097 46.98799331 78.30859375 61.44140625 C78.375 63.875 78.375 63.875 77.875 67.5 C75.12132814 70.25367186 73.50967146 69.75803066 69.66015625 69.765625 C67.79520508 69.76949219 67.79520508 69.76949219 65.89257812 69.7734375 C63.93481445 69.76183594 63.93481445 69.76183594 61.9375 69.75 C59.98553711 69.76160156 59.98553711 69.76160156 57.99414062 69.7734375 C56.12725586 69.76957031 56.12725586 69.76957031 54.22265625 69.765625 C53.07804932 69.76336914 51.93344238 69.76111328 50.75415039 69.75878906 C47.875 69.5 47.875 69.5 44.875 67.5 C43.8046875 65.03125 43.8046875 65.03125 42.75 62 C38.45484119 51.26210298 29.58241628 42.45342357 19.30859375 37.18359375 C8.78819852 32.98421485 -4.76849555 32.45848604 -15.4375 36.4375 C-16.60732422 36.97697266 -16.60732422 36.97697266 -17.80078125 37.52734375 C-20.69686977 38.73932029 -22.97494947 39.31811688 -26.125 39.5 C-28.65795898 37.85693359 -28.65795898 37.85693359 -31.12109375 35.3984375 C-32.00861328 34.51542969 -32.89613281 33.63242188 -33.81054688 32.72265625 C-34.71869141 31.78292969 -35.62683594 30.84320313 -36.5625 29.875 C-37.49771484 28.95847656 -38.43292969 28.04195312 -39.39648438 27.09765625 C-44.48555416 21.93764566 -44.48555416 21.93764566 -46.125 19.5 C-45.96201062 16.37071686 -45.70665254 15.06271502 -43.4453125 12.875 C-29.51585066 4.15049721 -16.49088643 -0.08575435 0 0 Z " fill="#029C44" transform="translate(107.125,30.5)"/>
<path d="M0 0 C3.78979555 2.87120298 7.43127435 5.85905263 11 9 C11.60972656 9.5259375 12.21945313 10.051875 12.84765625 10.59375 C27.695036 24.3530239 37.14763598 43.60231581 42 63 C42.18473877 63.72501709 42.36947754 64.45003418 42.55981445 65.19702148 C48.50981679 91.20398919 43.68966796 120.7137566 29.82666016 143.38867188 C25.41574878 150.35386583 20.44852409 156.80941945 15 163 C14.4740625 163.60972656 13.948125 164.21945313 13.40625 164.84765625 C-0.3530239 179.695036 -19.60231581 189.14763598 -39 194 C-39.72501709 194.18473877 -40.45003418 194.36947754 -41.19702148 194.55981445 C-67.20398919 200.50981679 -96.7137566 195.68966796 -119.38867188 181.82666016 C-126.35386583 177.41574878 -132.80941945 172.44852409 -139 167 C-139.60972656 166.4740625 -140.21945313 165.948125 -140.84765625 165.40625 C-155.695036 151.6469761 -165.14763598 132.39768419 -170 113 C-170.18473877 112.27498291 -170.36947754 111.54996582 -170.55981445 110.80297852 C-176.50981679 84.79601081 -171.68966796 55.2862434 -157.82666016 32.61132812 C-153.41574878 25.64613417 -148.44852409 19.19058055 -143 13 C-142.4740625 12.39027344 -141.948125 11.78054687 -141.40625 11.15234375 C-127.6469761 -3.695036 -108.39768419 -13.14763598 -89 -18 C-88.27498291 -18.18473877 -87.54996582 -18.36947754 -86.80297852 -18.55981445 C-56.68769159 -25.44973832 -24.73914819 -17.84668587 0 0 Z M-131 11 C-131.66386719 11.51820312 -132.32773438 12.03640625 -133.01171875 12.5703125 C-150.08332202 26.35225591 -163.05649242 49.80442552 -165.76855469 71.39550781 C-168.54299519 102.6167434 -163.69049576 129.9757726 -143.5847168 154.54638672 C-127.51995434 173.59933309 -104.28714253 188.7528861 -79 191 C-46.09453312 192.83617751 -19.75606336 187.19646676 5.43798828 165.24926758 C23.820682 148.63621952 36.35564302 125.16568246 38.28735352 100.30126953 C38.39987414 96.54975778 38.41694272 92.81540882 38.375 89.0625 C38.36484863 87.74435303 38.35469727 86.42620605 38.34423828 85.06811523 C37.95568659 60.74447839 29.76323107 40.5803547 14 22 C13.48179687 21.33613281 12.96359375 20.67226563 12.4296875 19.98828125 C-2.22106364 1.84049152 -25.4469526 -9.14330537 -48 -13 C-53.13377716 -13.39760846 -58.22803748 -13.42086402 -63.375 -13.375 C-64.66921875 -13.38660156 -65.9634375 -13.39820313 -67.296875 -13.41015625 C-91.63243291 -13.3372953 -112.49336429 -4.70068924 -131 11 Z " fill="#ACF8CB" transform="translate(172,20)"/>
<path d="M0 0 C1.01164719 0.00506058 1.01164719 0.00506058 2.04373169 0.01022339 C30.58262291 0.21637625 54.39073032 11.38632078 74.625 31.4375 C96.53493552 54.98587151 102.9643871 82.47718817 101.83203125 113.95263672 C100.34260357 139.02349841 87.05546776 162.15022253 68.89160156 179.05029297 C49.2441744 196.20430724 25.80880696 205.10443316 -0.3125 204.8125 C-1.63064697 204.80234863 -2.94879395 204.79219727 -4.30688477 204.78173828 C-28.63052161 204.39318659 -48.7946453 196.20073107 -67.375 180.4375 C-68.03886719 179.91929687 -68.70273438 179.40109375 -69.38671875 178.8671875 C-87.92517473 163.90105063 -98.63457258 140.48350241 -102.375 117.4375 C-102.76257423 112.44875785 -102.80590044 107.50180467 -102.75 102.5 C-102.73984863 101.18185303 -102.72969727 99.86370605 -102.71923828 98.50561523 C-102.33068659 74.18197839 -94.13823107 54.0178547 -78.375 35.4375 C-77.85679688 34.77363281 -77.33859375 34.10976563 -76.8046875 33.42578125 C-58.31900327 10.52768495 -28.66798424 -0.22810814 0 0 Z M-64.375 27.4375 C-65.04015625 27.95699219 -65.7053125 28.47648437 -66.390625 29.01171875 C-80.94489344 40.75571178 -91.85031647 59.40909776 -96.375 77.4375 C-96.54870117 78.12271729 -96.72240234 78.80793457 -96.90136719 79.51391602 C-102.96156223 105.9773078 -97.55473778 133.59424701 -83.375 156.4375 C-67.98161331 178.75250318 -45.08107158 194.8016176 -18.32543945 200.00976562 C7.8912458 203.81047995 34.13017851 198.88546248 56.04296875 183.76953125 C77.24193759 167.55041806 90.62767387 147.51817979 96.625 121.4375 C96.8007959 120.67348877 96.9765918 119.90947754 97.15771484 119.12231445 C99.81913132 103.83098899 98.94222934 86.05555069 93.625 71.4375 C93.23957031 70.37015625 92.85414063 69.3028125 92.45703125 68.203125 C82.21366448 42.08088222 62.58425351 21.99382652 36.99609375 10.71875 C2.23405338 -2.49324217 -36.04740529 3.34003269 -64.375 27.4375 Z " fill="#5FD7A3" transform="translate(108.375,6.5625)"/>
<path d="M0 0 C1.18013672 0.00708984 2.36027344 0.01417969 3.57617188 0.02148438 C4.86136719 0.0240625 6.1465625 0.02664062 7.47070312 0.02929688 C8.13924316 0.04379883 8.8077832 0.05830078 9.49658203 0.07324219 C11.53841563 0.11510099 13.5769504 0.11431285 15.61914062 0.10742188 C25.45232768 0.20604963 25.45232768 0.20604963 27.96411133 1.94042969 C29.04492188 3.61523438 29.04492188 3.61523438 28.86914062 6.88085938 C25.6050791 21.66968788 18.94830116 34.26639144 9.04492188 45.61523438 C8.52542969 46.23011719 8.0059375 46.845 7.47070312 47.47851562 C-1.68822012 57.51411163 -18.45349597 67.62517144 -32.08789062 68.79882812 C-34.26757813 68.86523438 -34.26757813 68.86523438 -37.95507812 68.61523438 C-41.31364779 65.25666471 -40.25223334 60.84059011 -40.27734375 56.27734375 C-40.27516846 55.60469482 -40.27299316 54.9320459 -40.27075195 54.23901367 C-40.26759508 52.18874824 -40.29103572 50.13993033 -40.31640625 48.08984375 C-40.31705078 46.80013672 -40.31769531 45.51042969 -40.31835938 44.18164062 C-40.32134033 42.99513916 -40.32432129 41.8086377 -40.32739258 40.58618164 C-39.95507812 37.61523438 -39.95507812 37.61523438 -38.65112305 35.78295898 C-36.95507812 34.61523438 -36.95507812 34.61523438 -33.45507812 33.36523438 C-21.0417007 28.89276751 -13.496625 20.88230504 -7.64257812 9.24023438 C-6.66597303 7.14234196 -5.69892632 5.03983302 -4.7578125 2.92578125 C-2.95507812 0.61523438 -2.95507812 0.61523438 0 0 Z " fill="#25CE71" transform="translate(156.955078125,117.384765625)"/>
<path d="M0 0 C1.9375 0.75 1.9375 0.75 3.9375 2.75 C3.9375 4.07 3.9375 5.39 3.9375 6.75 C4.700625 7.018125 5.46375 7.28625 6.25 7.5625 C8.88610118 8.72728889 10.29081505 9.40997402 11.9375 11.75 C12.125 14.4375 12.125 14.4375 11.9375 16.75 C10.2875 17.08 8.6375 17.41 6.9375 17.75 C6.6075 16.76 6.2775 15.77 5.9375 14.75 C2.80338698 12.66059132 1.96299528 12.47635588 -1.625 12.5 C-2.41003906 12.49484375 -3.19507812 12.4896875 -4.00390625 12.484375 C-6.28540968 12.56570738 -6.28540968 12.56570738 -8.0625 14.75 C-8.71017793 17.32061311 -8.71017793 17.32061311 -9.0625 19.75 C-4.76291106 22.06431956 -0.1441968 23.64762686 4.44921875 25.27539062 C8.89305023 26.96511098 11.44134625 28.68196101 13.9375 32.75 C14.26420315 36.5397565 14.13940901 39.14427296 12.9375 42.75 C8.76456767 46.58458647 8.76456767 46.58458647 5.75 47.1875 C5.151875 47.373125 4.55375 47.55875 3.9375 47.75 C2.70459799 50.20704762 2.70459799 50.20704762 1.9375 52.75 C0.9375 53.75 0.9375 53.75 -1.625 53.8125 C-2.429375 53.791875 -3.23375 53.77125 -4.0625 53.75 C-4.289375 52.80125 -4.51625 51.8525 -4.75 50.875 C-5.71476238 47.58088135 -5.71476238 47.58088135 -8.4375 46.6875 C-9.30375 46.378125 -10.17 46.06875 -11.0625 45.75 C-14.28977238 42.43550404 -15.0625 41.48899834 -15.0625 36.75 C-10.54529689 36.38374029 -10.54529689 36.38374029 -8.25 38.125 C-7.0625 39.75 -7.0625 39.75 -7.0625 41.75 C-5.45870659 41.80416188 -3.85438594 41.84286638 -2.25 41.875 C-0.91001953 41.90980469 -0.91001953 41.90980469 0.45703125 41.9453125 C3.19152714 41.93285827 3.19152714 41.93285827 5.9375 39.75 C6.67093428 36.68443402 6.67093428 36.68443402 6.9375 33.75 C6.39222656 33.57984375 5.84695312 33.4096875 5.28515625 33.234375 C-11.69903539 27.77620743 -11.69903539 27.77620743 -15.0625 21.75 C-16.1875 18.375 -16.1875 18.375 -16.0625 14.75 C-13.8670919 10.85392366 -11.46906159 8.20866139 -7.1875 6.8125 C-6.48625 6.791875 -5.785 6.77125 -5.0625 6.75 C-5.124375 5.96625 -5.18625 5.1825 -5.25 4.375 C-5.188125 3.50875 -5.12625 2.6425 -5.0625 1.75 C-2.0625 -0.25 -2.0625 -0.25 0 0 Z " fill="#0EA24B" transform="translate(109.0625,82.25)"/>
<path d="M0 0 C0.94875 0.04125 1.8975 0.0825 2.875 0.125 C2.070625 0.4653125 2.070625 0.4653125 1.25 0.8125 C-1.91000863 2.55882056 -4.3926983 4.7652849 -7.125 7.125 C-4.56730769 0.18269231 -4.56730769 0.18269231 0 0 Z " fill="#21AA57" transform="translate(47.125,62.875)"/>
</svg>
